<svg width="141.000000" height="56.000000" viewBox="0 0 141 56" fill="none" xmlns="http://www.w3.org/2000/svg" xmlns:xlink="http://www.w3.org/1999/xlink">
	<desc>
			Created with Pixso.
	</desc>
	<defs>
		<clipPath id="clip1_211">
			<rect id="mail (1) 1" width="26.000000" height="26.000000" transform="translate(25.000000 15.000000)" fill="white" fill-opacity="0"/>
		</clipPath>
		<clipPath id="clip1_210">
			<rect id="Frame 5" rx="28.000000" width="141.000000" height="56.000000" fill="white" fill-opacity="0"/>
		</clipPath>
	</defs>
	<rect id="Frame 5" rx="28.000000" width="141.000000" height="56.000000" fill="#000000" fill-opacity="1.000000"/>
	<g clip-path="url(#clip1_210)">
		<rect id="mail (1) 1" width="26.000000" height="26.000000" transform="translate(25.000000 15.000000)" fill="#FFFFFF" fill-opacity="0"/>
		<g clip-path="url(#clip1_211)">
			<path id="Vector" d="M46.5312 19.0625L29.4688 19.0625C28.7148 19.0635 27.9919 19.3633 27.4588 19.8965C26.9257 20.4292 26.6258 21.1523 26.625 21.9062L26.625 34.0938C26.6258 34.8477 26.9257 35.5708 27.4588 36.1035C27.9919 36.6367 28.7148 36.9365 29.4688 36.9375L46.5312 36.9375C47.2852 36.9365 48.0081 36.6367 48.5412 36.1035C49.0743 35.5708 49.3742 34.8477 49.375 34.0938L49.375 21.9062C49.3742 21.1523 49.0743 20.4292 48.5412 19.8965C48.0081 19.3633 47.2852 19.0635 46.5312 19.0625ZM45.8112 23.7666L38.4987 29.4541C38.3561 29.5649 38.1806 29.625 38 29.625C37.8194 29.625 37.6439 29.5649 37.5013 29.4541L30.1888 23.7666C30.1029 23.7017 30.0308 23.6201 29.9765 23.5273C29.9223 23.4341 29.8871 23.3311 29.873 23.2246C29.8589 23.1177 29.8661 23.0093 29.8943 22.9053C29.9224 22.8018 29.9709 22.7041 30.037 22.6191C30.1031 22.5342 30.1855 22.4634 30.2792 22.4102C30.373 22.3574 30.4763 22.3237 30.5833 22.311C30.6902 22.2983 30.7985 22.3071 30.902 22.3369C31.0055 22.3667 31.1021 22.4165 31.1862 22.4834L38 27.7832L44.8138 22.4834C44.9842 22.355 45.1984 22.2983 45.4101 22.3267C45.6217 22.3545 45.8138 22.4648 45.9449 22.6333C46.076 22.8018 46.1354 23.0151 46.1104 23.2271C46.0854 23.4395 45.9779 23.6328 45.8112 23.7666Z" fill="#FFFFFF" fill-opacity="1.000000" fill-rule="nonzero"/>
		</g>
		<path id="Почта" d="M72.9707 21.4087L62.5425 21.4087L62.5425 34.5L64.8936 34.5L64.8936 23.3774L70.6196 23.3774L70.6196 34.5L72.9707 34.5L72.9707 21.4087ZM79.984 34.6934C82.8624 34.6934 84.6905 32.6675 84.6905 29.6309C84.6905 26.5854 82.8624 24.5552 79.984 24.5552C77.11 24.5552 75.2818 26.5854 75.2818 29.6309C75.2818 32.6675 77.11 34.6934 79.984 34.6934ZM79.9972 32.8389C78.4063 32.8389 77.6241 31.4194 77.6241 29.6221C77.6241 27.8247 78.4063 26.3877 79.9972 26.3877C81.5616 26.3877 82.3438 27.8247 82.3438 29.6221C82.3438 31.4194 81.5616 32.8389 79.9972 32.8389ZM94.8471 24.6826L92.6234 24.6826L92.6234 29.4771C92.0609 29.6177 91.5028 29.6924 90.8964 29.6924C89.5297 29.6924 88.8573 29.209 88.8573 27.9434L88.8573 24.6694L86.6469 24.6694L86.6469 27.9434C86.6469 30.4482 88.2729 31.5908 90.8964 31.5908C91.4721 31.5908 92.0697 31.5161 92.6234 31.3887L92.6234 34.5L94.8471 34.5L94.8471 24.6826ZM96.0779 26.5811L99.2552 26.5811L99.2552 34.5L101.492 34.5L101.492 26.5811L104.669 26.5811L104.669 24.6826L96.0779 24.6826L96.0779 26.5811ZM108.932 34.6978C110.474 34.6978 111.393 33.9771 111.815 33.1509L111.894 33.1509L111.894 34.5L114.118 34.5L114.118 27.9302C114.118 25.333 112.004 24.5552 110.127 24.5552C108.066 24.5552 106.48 25.4736 105.97 27.2622L108.128 27.5698C108.361 26.9019 109.011 26.3262 110.14 26.3262C111.217 26.3262 111.806 26.8755 111.806 27.8379L111.806 27.8774C111.806 28.541 111.107 28.5762 109.376 28.7607C107.469 28.9629 105.649 29.5342 105.649 31.7446C105.649 33.6738 107.06 34.6978 108.932 34.6978ZM109.534 32.9971C108.572 32.9971 107.877 32.5576 107.877 31.7051C107.877 30.8174 108.651 30.4482 109.688 30.2988C110.294 30.2153 111.512 30.0659 111.81 29.8198L111.81 30.98C111.81 32.0698 110.927 32.9971 109.534 32.9971Z" fill="#FFFFFF" fill-opacity="1.000000" fill-rule="evenodd"/>
	</g>
</svg>
